# xmcd
#
# Track frame offsets: 
#        150
#        18782
#        33090
#        49735
#        62245
#        77745
#        99725
#        117502
#        140600
#        163115
#        181432
#        199032
#        215359
#        246642
#        263885
#        282055
#
# Disc length: 4172 seconds
#
# Revision: 0
# Processed by: cddbd v1.5.2PL0 Copyright (c) Steve Scherf et al.
# Submitted via: ExactAudioCopy v0.95b4
#
DISCID=e9104a10
DTITLE=Eric Clapton - Blue NBTB '94 (Another Source Disc1)
DYEAR=1994
DGENRE=Blues
TTITLE0=Motherless child
TTITLE1=Malted milk
TTITLE2=How long blues
TTITLE3=Kidman blues
TTITLE4=County jail blues
TTITLE5=Forty-four blues
TTITLE6=Blues all day long
TTITLE7=Going away
TTITLE8=Standing around crying
TTITLE9=Hoochie coochie man
TTITLE10=It hurts me too
TTITLE11=Blues before sunrise
TTITLE12=Third degree
TTITLE13=Reconsider baby
TTITLE14=Sinner's prayer
TTITLE15=Before you accuse me
EXTD=
EXTT0=
EXTT1=
EXTT2=
EXTT3=
EXTT4=
EXTT5=
EXTT6=
EXTT7=
EXTT8=
EXTT9=
EXTT10=
EXTT11=
EXTT12=
EXTT13=
EXTT14=
EXTT15=
PLAYORDER=
